<svg width="588" height="461" viewBox="0 0 588 461" fill="none" xmlns="http://www.w3.org/2000/svg">
<path d="M582.956 235.544C580.806 358.738 449.939 456.756 290.099 453.966C130.26 451.176 2.89366 348.65 5.04402 225.456C7.19437 102.262 138.061 4.24406 297.901 7.03407C457.74 9.82407 585.106 112.35 582.956 235.544Z" stroke="black" stroke-opacity="0.12" stroke-width="2"/>
<path d="M582.415 266.539C581.49 319.527 548.462 367.058 495.56 401.037C442.665 435.012 369.998 455.361 290.099 453.966C210.2 452.571 138.288 429.699 86.6108 393.899C34.927 358.094 3.57809 309.439 4.503 256.452C5.4279 203.464 38.4557 155.933 91.3576 121.954C144.252 87.9789 216.92 67.63 296.819 69.0247C376.718 70.4193 448.63 93.2919 500.307 129.092C551.991 164.897 583.34 213.552 582.415 266.539Z" stroke="black" stroke-opacity="0.12" stroke-width="2"/>
<path d="M581.874 297.534C581.1 341.877 548.309 381.667 495.469 410.076C442.661 438.467 370.03 455.361 290.099 453.966C210.169 452.571 138.172 433.152 86.3868 402.935C34.5702 372.7 3.18797 331.79 3.96197 287.447C4.73598 243.104 37.5269 203.314 90.3671 174.905C143.175 146.514 215.806 129.62 295.737 131.015C375.667 132.41 447.664 151.829 499.449 182.046C551.266 212.281 582.648 253.192 581.874 297.534Z" stroke="black" stroke-opacity="0.12" stroke-width="2"/>
<path d="M581.333 328.53C580.71 364.202 548.207 396.269 495.387 419.117C442.658 441.926 370.06 455.362 290.099 453.966C210.139 452.57 138.054 436.609 86.1532 411.974C34.1623 387.296 2.79827 354.115 3.42094 318.442C4.04361 282.769 36.5466 250.703 89.367 227.854C142.096 205.046 214.694 191.61 294.654 193.006C374.615 194.401 446.7 210.363 498.601 234.998C550.591 259.676 581.956 292.857 581.333 328.53Z" stroke="black" stroke-opacity="0.12" stroke-width="2"/>
<path d="M580.792 359.525C580.557 372.978 572.466 385.802 557.703 397.473C542.947 409.139 521.648 419.549 495.314 428.163C442.657 445.388 370.088 455.362 290.099 453.966C210.111 452.57 137.934 440.069 85.9098 421.017C59.8929 411.489 38.9701 400.342 24.6307 388.169C10.2841 375.989 2.64509 362.89 2.87991 349.437C3.11474 335.984 11.2063 323.16 25.9691 311.489C40.7246 299.824 62.0238 289.414 88.3573 280.799C141.015 263.574 213.584 253.6 293.572 254.996C373.561 256.393 445.738 268.893 497.762 287.946C523.779 297.474 544.702 308.621 559.041 320.794C573.388 332.973 581.027 346.072 580.792 359.525Z" stroke="black" stroke-opacity="0.12" stroke-width="2"/>
<path d="M580.251 390.52C580.094 399.522 572.295 408.273 557.515 416.31C542.815 424.303 521.556 431.395 495.251 437.215C442.657 448.853 370.114 455.363 290.099 453.966C210.085 452.569 137.814 443.532 85.6575 430.066C59.5715 423.331 38.5729 415.501 24.1612 407C9.67069 398.452 2.18176 389.435 2.33889 380.433C2.49602 371.431 10.2951 362.68 25.0751 354.643C39.7747 346.65 61.0338 339.558 87.3389 333.738C139.933 322.1 212.476 315.59 292.49 316.987C372.505 318.383 444.776 327.421 496.932 340.887C523.018 347.622 544.017 355.451 558.429 363.953C572.919 372.501 580.408 381.518 580.251 390.52Z" stroke="black" stroke-opacity="0.12" stroke-width="2"/>
<path d="M579.71 421.515C579.673 423.633 578 425.938 574.154 428.34C570.36 430.708 564.722 432.995 557.379 435.16C542.708 439.485 521.47 443.254 495.194 446.276C442.657 452.32 370.139 455.363 290.099 453.966C210.06 452.569 137.692 446.997 85.3979 439.123C59.2434 435.186 38.1502 430.678 23.6387 425.843C16.3759 423.423 10.8207 420.941 7.1123 418.442C3.3519 415.908 1.76091 413.545 1.79787 411.428C1.83483 409.31 3.5073 407.005 7.35385 404.604C11.1472 402.236 16.7857 399.948 24.1285 397.784C38.7998 393.458 60.0375 389.689 86.3135 386.667C138.851 380.623 211.369 377.58 291.408 378.977C371.448 380.374 443.815 385.946 496.11 393.82C522.264 397.758 543.358 402.266 557.869 407.1C565.132 409.52 570.687 412.002 574.395 414.501C578.156 417.035 579.747 419.398 579.71 421.515Z" stroke="black" stroke-opacity="0.12" stroke-width="2"/>
<path d="M574.162 451.904C575.535 452.102 576.653 452.295 577.517 452.482C576.647 452.638 575.523 452.793 574.143 452.943C570.305 453.36 564.627 453.73 557.288 454.05C542.617 454.691 521.386 455.128 495.142 455.348C442.657 455.789 370.163 455.364 290.099 453.966C210.036 452.569 137.571 450.464 85.1338 448.192C58.9136 447.055 37.71 445.877 23.0707 444.726C15.7476 444.149 10.0852 443.581 6.26418 443.03C4.89044 442.832 3.77236 442.639 2.90887 442.452C3.77835 442.296 4.9025 442.142 6.28231 441.992C10.1203 441.574 15.799 441.204 23.1377 440.884C37.8083 440.243 59.0401 439.806 85.2841 439.586C137.768 439.145 210.263 439.571 290.326 440.968C370.39 442.366 442.855 444.47 495.292 446.742C521.512 447.879 542.716 449.057 557.355 450.209C564.678 450.785 570.34 451.353 574.162 451.904Z" stroke="black" stroke-opacity="0.12" stroke-width="2"/>
</svg>
