<svg width="36" height="32" viewBox="0 0 36 32" fill="none" xmlns="http://www.w3.org/2000/svg">
<path d="M13.7278 11.4429L13.7281 11.4418L21.2855 15.4656L25.7888 13.7811L25.789 13.7818C26.704 13.4301 27.6906 13.2491 28.6875 13.25C28.8536 13.25 29.0178 13.2567 29.1811 13.2664C28.6397 11.3898 27.4968 9.6934 25.8912 8.38333C24.2856 7.07325 22.2865 6.20591 20.1368 5.8867C17.9871 5.56748 15.7794 5.81015 13.7819 6.5852C11.7844 7.36025 10.0832 8.63432 8.88501 10.2526C8.92351 10.2521 8.96142 10.25 9.00001 10.25C10.6702 10.248 12.3078 10.6612 13.7278 11.4429Z" fill="#0364B8"/>
<path d="M13.7281 11.4418L13.7278 11.4429C12.3078 10.6612 10.6702 10.248 9 10.25C8.96141 10.25 8.92344 10.2522 8.88499 10.2526C7.25025 10.2706 5.65193 10.6842 4.26179 11.449C2.87165 12.2138 1.74223 13.3008 0.994917 14.5933C0.247603 15.8858 -0.089359 17.3349 0.0202422 18.7848C0.129844 20.2348 0.681865 21.6308 1.61698 22.8228L8.28148 20.3299L11.2441 19.2217L17.8406 16.7542L21.2854 15.4656L13.7281 11.4418Z" fill="#0078D4"/>
<path d="M29.1811 13.2664C29.0178 13.2567 28.8536 13.25 28.6875 13.25C27.6906 13.2491 26.704 13.4301 25.789 13.7818L25.7888 13.7811L21.2855 15.4656L22.5913 16.1609L26.8719 18.44L28.7395 19.4344L35.1253 22.8345C35.7056 21.877 36.0063 20.8054 35.9999 19.7178C35.9935 18.6303 35.6802 17.5615 35.0888 16.6095C34.4973 15.6574 33.6466 14.8525 32.6144 14.2684C31.5823 13.6844 30.4018 13.3399 29.1811 13.2664V13.2664Z" fill="#1490DF"/>
<path d="M28.7395 19.4343L26.8719 18.44L22.5913 16.1609L21.2855 15.4656L17.8406 16.7542L11.2441 19.2216L8.2815 20.3298L1.617 22.8227C2.44519 23.8811 3.54925 24.7457 4.8349 25.3425C6.12055 25.9393 7.5496 26.2506 9.00001 26.25H28.6875C30.0075 26.2503 31.303 25.933 32.4365 25.3316C33.57 24.7302 34.4991 23.8673 35.1254 22.8344L28.7395 19.4343Z" fill="#28A8EA"/>
</svg>
