<svg width="32" height="32" viewBox="0 0 32 32" fill="none" xmlns="http://www.w3.org/2000/svg">
<path d="M20.3037 10.1596H21.2797L24.0613 7.35131L24.1979 6.15901C22.6045 4.73905 20.6788 3.75266 18.6027 3.293C16.5267 2.83335 14.3688 2.91561 12.333 3.53202C10.2972 4.14843 8.45068 5.27863 6.96781 6.81587C5.48495 8.35311 4.41472 10.2466 3.85822 12.3176C4.16811 12.1893 4.51137 12.1685 4.83422 12.2584L10.3974 11.3322C10.3974 11.3322 10.6804 10.8592 10.8268 10.8888C12.0188 9.56707 13.6662 8.75535 15.4316 8.6198C17.197 8.48424 18.947 9.0351 20.3232 10.1596H20.3037Z" fill="#EA4335"/>
<path d="M28.0257 12.3175C27.3863 9.94039 26.0736 7.80343 24.2486 6.16876L20.3446 10.1102C21.1582 10.7814 21.8103 11.6304 22.2515 12.5931C22.6928 13.5558 22.9118 14.6071 22.8919 15.6677V16.3673C23.3482 16.3673 23.8 16.4581 24.2216 16.6343C24.6431 16.8106 25.0262 17.069 25.3488 17.3948C25.6714 17.7205 25.9274 18.1072 26.102 18.5328C26.2766 18.9584 26.3665 19.4146 26.3665 19.8752C26.3665 20.3359 26.2766 20.792 26.102 21.2176C25.9274 21.6432 25.6714 22.0299 25.3488 22.3557C25.0262 22.6814 24.6431 22.9398 24.2216 23.1161C23.8 23.2924 23.3482 23.3831 22.8919 23.3831H15.9429L15.2499 24.0926V28.3001L15.9429 28.9997H22.8919C24.8324 29.015 26.7263 28.3992 28.2933 27.2436C29.8603 26.0879 31.0173 24.4537 31.593 22.5827C32.1688 20.7118 32.1328 18.7034 31.4903 16.8547C30.8479 15.0059 29.6331 13.4151 28.0257 12.3175Z" fill="#4285F4"/>
<path d="M8.98235 28.9597H15.9314V23.3431H8.98235C8.48726 23.343 7.99797 23.2355 7.54763 23.0278L6.57164 23.3332L3.77054 26.1415L3.52654 27.1269C5.09734 28.3244 7.01404 28.9683 8.98235 28.9597Z" fill="#34A853"/>
<path d="M8.98372 10.7406C7.10085 10.7519 5.26851 11.3567 3.74262 12.4705C2.21674 13.5843 1.0735 15.1514 0.472597 16.9529C-0.128308 18.7545 -0.156874 20.7006 0.390888 22.5194C0.938649 24.3381 2.03538 25.9388 3.52791 27.0977L7.55877 23.0281C7.04653 22.7945 6.59808 22.4388 6.25191 21.9917C5.90574 21.5446 5.67217 21.0194 5.57125 20.4612C5.47033 19.9029 5.50506 19.3282 5.67248 18.7865C5.8399 18.2448 6.135 17.7521 6.53245 17.3509C6.92991 16.9496 7.41786 16.6517 7.95444 16.4826C8.49102 16.3136 9.06021 16.2785 9.61317 16.3804C10.1661 16.4823 10.6863 16.7181 11.1292 17.0676C11.572 17.4171 11.9243 17.8699 12.1557 18.387L16.1866 14.3175C15.3405 13.2008 14.2501 12.2969 13.0005 11.6764C11.751 11.0558 10.3762 10.7356 8.98372 10.7406Z" fill="#FBBC05"/>
</svg>
