<svg width="36" height="32" viewBox="0 0 36 32" fill="none" xmlns="http://www.w3.org/2000/svg">
<g clip-path="url(#clip0_32_661)">
<path d="M18.041 0H17.959C8.04053 0 0 7.14713 0 15.9636V16.0364C0 24.8529 8.04053 32 17.959 32H18.041C27.9595 32 36 24.8529 36 16.0364V15.9636C36 7.14713 27.9595 0 18.041 0Z" fill="#0EA982"/>
<path d="M30.1727 17.2877C29.8846 16.3163 29.2807 15.4051 28.4618 14.6995C29.7094 12.8712 29.6696 10.5477 28.3423 8.85408C27.5712 7.87079 26.4045 7.14868 25.0574 6.82249C23.969 6.55894 22.7797 6.56957 21.6847 6.84849C20.5313 4.9729 18.2511 3.84187 15.939 4.01797C14.5972 4.12079 13.311 4.65971 12.3209 5.53546C11.5205 6.24339 10.9365 7.16523 10.6605 8.14852C8.2621 8.10243 6.019 9.29373 5.03549 11.1634C4.46344 12.2495 4.34531 13.5106 4.70235 14.7125C4.99036 15.684 5.59429 16.5952 6.41321 17.3007C5.16558 19.1279 5.20539 21.4526 6.53266 23.1462C7.3038 24.1295 8.47047 24.8516 9.81765 25.1777C10.9113 25.4425 12.0939 25.433 13.1902 25.1517C14.2587 26.8891 16.3014 28 18.4555 28C18.6148 28 18.7767 27.9941 18.9346 27.9823C20.2765 27.8795 21.5626 27.3405 22.5528 26.4648C23.3531 25.7569 23.9371 24.8362 24.2145 23.8517C24.261 23.8517 24.3088 23.8529 24.3552 23.8529C26.7231 23.8529 28.8759 22.6687 29.8395 20.8356C30.4116 19.7495 30.5297 18.4885 30.1727 17.2866V17.2877ZM19.7018 20.3393L13.4477 23.5539C13.3946 23.5763 13.3415 23.5976 13.2898 23.6177C12.6991 23.8423 12.0767 23.9557 11.4396 23.9557C9.9809 23.9557 8.63506 23.3494 7.84003 22.3342C6.89899 21.1323 6.85387 19.4742 7.7073 18.141L14.3742 21.5696L19.6514 18.687L19.7005 20.3393H19.7018ZM15.9324 19.0522L14.3503 19.9162L8.09751 16.7015C8.0484 16.6708 8.00194 16.6413 7.95681 16.6105C6.23136 15.4582 5.60889 13.4207 6.47958 11.7673C7.17772 10.4401 8.76911 9.57738 10.4932 9.5691V16.4238L15.9337 19.0522H15.9324ZM19.5293 17.0762L17.4375 18.1517L15.3457 17.0762V14.9252L17.4375 13.8498L19.5293 14.9252V17.0762ZM18.9426 12.9492L20.5247 12.0853L26.7775 15.2999C26.8266 15.3306 26.8731 15.3602 26.9182 15.3909C28.6436 16.5432 29.2648 18.5807 28.3954 20.2341C27.6973 21.5613 26.1059 22.424 24.3818 22.4323V15.5776L18.9413 12.9492H18.9426ZM15.1732 11.6622L21.4273 8.44753C21.4804 8.42508 21.5334 8.4038 21.5852 8.38371C23.5695 7.62969 25.8617 8.16861 27.035 9.66601C27.976 10.868 28.0211 12.5261 27.1677 13.8592L20.5008 10.4307L15.2236 13.312L15.1745 11.6598L15.1732 11.6622ZM13.7172 16.3659L12.086 15.5776V9.14837C12.0913 9.09518 12.0966 9.04318 12.1032 8.99472C12.362 7.08722 14.0317 5.58982 16.0757 5.43382C17.7162 5.30854 19.3501 6.10393 20.2208 7.42878L13.5526 10.855L13.7172 16.3659ZM21.1578 15.6355L22.789 16.4238V22.8531C22.7837 22.9062 22.7784 22.9582 22.7718 23.0067C22.513 24.9142 20.8433 26.4116 18.7993 26.5676C17.1588 26.6941 15.5249 25.8987 14.6542 24.5726L21.3224 21.1465L21.1578 15.6355Z" fill="white"/>
</g>
<defs>
<clipPath id="clip0_32_661">
<rect width="36" height="32" fill="white"/>
</clipPath>
</defs>
</svg>
