<svg width="36" height="32" viewBox="0 0 36 32" fill="none" xmlns="http://www.w3.org/2000/svg">
<path d="M33.3 0H2.7C1.20883 0 0 1.07452 0 2.4V29.6C0 30.9255 1.20883 32 2.7 32H33.3C34.7912 32 36 30.9255 36 29.6V2.4C36 1.07452 34.7912 0 33.3 0Z" fill="#FFD02F"/>
<path fill-rule="evenodd" clip-rule="evenodd" d="M24.4757 4.00183H20.5237L23.8181 9.14441L16.5738 4.00183H12.6218L16.2451 10.2883L8.67199 4.00183H4.71997L8.67199 12.0012L4.71997 28.0018H8.67199L16.2451 10.8593L12.6218 28.0018H16.5738L23.8181 9.71538L20.5237 28.0018H24.4757L31.72 8.00248L24.4757 4.00183Z" fill="#050038"/>
</svg>
