<svg width="36" height="32" viewBox="0 0 36 32" fill="none" xmlns="http://www.w3.org/2000/svg">
<path fill-rule="evenodd" clip-rule="evenodd" d="M18.0149 0C8.05312 0 0 7.10414 0 15.8929C0 22.9183 5.15991 28.8651 12.3181 30.9698C13.213 31.1281 13.5409 30.6279 13.5409 30.2071C13.5409 29.8387 13.5114 28.5757 13.5114 27.2599C8.50005 28.2073 7.45649 25.3653 7.45649 25.3653C6.65114 23.5234 5.45786 23.05 5.45786 23.05C3.81766 22.0764 5.57734 22.0764 5.57734 22.0764C7.39675 22.1817 8.35144 23.7078 8.35144 23.7078C9.96177 26.1284 12.5567 25.4444 13.6006 25.0234C13.7496 23.9971 14.2271 23.2867 14.7341 22.8921C10.7373 22.5237 6.53203 21.1555 6.53203 15.0508C6.53203 13.3141 7.24741 11.8933 8.38094 10.7883C8.2021 10.3937 7.57559 8.76198 8.56015 6.57811C8.56015 6.57811 10.0812 6.15703 13.511 8.20948C14.9794 7.86159 16.4937 7.68461 18.0149 7.68312C19.536 7.68312 21.0866 7.86751 22.5184 8.20948C25.9485 6.15703 27.4696 6.57811 27.4696 6.57811C28.4542 8.76198 27.8273 10.3937 27.6485 10.7883C28.8119 11.8933 29.4978 13.3141 29.4978 15.0508C29.4978 21.1555 25.2925 22.4972 21.2658 22.8921C21.9222 23.392 22.4886 24.3391 22.4886 25.839C22.4886 27.9703 22.4591 29.6808 22.4591 30.2068C22.4591 30.6279 22.7873 31.1281 23.6818 30.9702C30.84 28.8648 35.9999 22.9183 35.9999 15.8929C36.0294 7.10414 27.9468 0 18.0149 0Z" fill="#24292F"/>
</svg>
