<svg width="36" height="32" viewBox="0 0 36 32" fill="none" xmlns="http://www.w3.org/2000/svg">
<g clip-path="url(#clip0_32_1551)">
<path d="M25.1104 12.2878H34.4093C35.2878 12.2878 36 12.9209 36 13.7018V21.2307C36 24.1008 33.3826 26.4274 30.1538 26.4274H30.1261C26.8973 26.4278 24.2795 24.1015 24.2791 21.2315C24.2791 21.2312 24.2791 21.231 24.2791 21.2307V13.0268C24.2791 12.6187 24.6513 12.2878 25.1104 12.2878Z" fill="#5059C9"/>
<path d="M31.3954 10.7994C33.4761 10.7994 35.1628 9.30003 35.1628 7.45052C35.1628 5.60101 33.4761 4.10168 31.3954 4.10168C29.3147 4.10168 27.6279 5.60101 27.6279 7.45052C27.6279 9.30003 29.3147 10.7994 31.3954 10.7994Z" fill="#5059C9"/>
<path d="M19.6744 10.7994C22.6799 10.7994 25.1163 8.63374 25.1163 5.96221C25.1163 3.29069 22.6799 1.125 19.6744 1.125C16.669 1.125 14.2325 3.29069 14.2325 5.96221C14.2325 8.63374 16.669 10.7994 19.6744 10.7994Z" fill="#7B83EB"/>
<path d="M26.9305 12.2878H11.5811C10.713 12.3069 10.0263 12.9473 10.0465 13.7189V22.3061C9.92527 26.9366 14.0466 30.7792 19.2558 30.8925C24.465 30.7792 28.5863 26.9366 28.4651 22.3061V13.7189C28.4852 12.9473 27.7986 12.3069 26.9305 12.2878Z" fill="#7B83EB"/>
<path opacity="0.1" d="M20.093 12.2878V24.3213C20.0889 24.8732 19.7127 25.3689 19.1386 25.579C18.9558 25.6477 18.7594 25.6832 18.5609 25.6832H10.7833C10.6744 25.4376 10.574 25.192 10.4902 24.939C10.1972 24.0851 10.0476 23.1974 10.0465 22.3046V13.7167C10.0264 12.9463 10.7119 12.3069 11.5786 12.2878H20.093Z" fill="black"/>
<path opacity="0.2" d="M19.2558 12.2878V25.0655C19.2558 25.2419 19.216 25.4165 19.1386 25.579C18.9023 26.0893 18.3446 26.4237 17.7238 26.4274H11.1768C11.0344 26.1818 10.9005 25.9362 10.7833 25.6832C10.6661 25.4302 10.574 25.192 10.4902 24.939C10.1972 24.0851 10.0476 23.1974 10.0465 22.3046V13.7167C10.0264 12.9463 10.7119 12.3069 11.5786 12.2878H19.2558Z" fill="black"/>
<path opacity="0.2" d="M19.2558 12.2878V23.5772C19.2495 24.3269 18.5672 24.9333 17.7237 24.939H10.4902C10.1972 24.0851 10.0476 23.1974 10.0465 22.3046V13.7167C10.0264 12.9463 10.7119 12.3069 11.5786 12.2878H19.2558Z" fill="black"/>
<path opacity="0.2" d="M18.4186 12.2878V23.5772C18.4122 24.3269 17.73 24.9333 16.8865 24.939H10.4902C10.1972 24.0851 10.0476 23.1974 10.0465 22.3046V13.7167C10.0264 12.9463 10.7119 12.3069 11.5786 12.2878H18.4186Z" fill="black"/>
<path opacity="0.1" d="M20.093 8.44034V10.7845C19.9506 10.792 19.8167 10.7994 19.6743 10.7994C19.532 10.7994 19.3981 10.792 19.2557 10.7845C18.9731 10.7679 18.6929 10.728 18.4185 10.6655C16.7232 10.3086 15.3225 9.25171 14.6511 7.82267C14.5356 7.58269 14.4459 7.33351 14.3832 7.07849H18.5608C19.4057 7.08133 20.0897 7.68938 20.093 8.44034Z" fill="black"/>
<path opacity="0.2" d="M19.2558 9.1846V10.7846C18.9732 10.7679 18.693 10.7281 18.4186 10.6655C16.7233 10.3087 15.3226 9.25179 14.6512 7.82275H17.7237C18.5686 7.8256 19.2526 8.43366 19.2558 9.1846Z" fill="black"/>
<path opacity="0.2" d="M19.2558 9.1846V10.7846C18.9732 10.7679 18.693 10.7281 18.4186 10.6655C16.7233 10.3087 15.3226 9.25179 14.6512 7.82275H17.7237C18.5686 7.8256 19.2526 8.43366 19.2558 9.1846Z" fill="black"/>
<path opacity="0.2" d="M18.4186 9.18449V10.6654C16.7233 10.3085 15.3226 9.25167 14.6512 7.82263H16.8865C17.7314 7.82549 18.4154 8.43355 18.4186 9.18449Z" fill="black"/>
<path d="M1.5346 7.82263H16.884C17.7315 7.82263 18.4186 8.43336 18.4186 9.18672V22.8306C18.4186 23.584 17.7315 24.1947 16.884 24.1947H1.5346C0.687056 24.1947 0 23.584 0 22.8306V9.18672C0 8.43336 0.687072 7.82263 1.5346 7.82263Z" fill="url(#paint0_linear_32_1551)"/>
<path d="M13.248 13.0156H10.1797V20.4426H8.22479V13.0156H5.17065V11.5748H13.248V13.0156Z" fill="white"/>
</g>
<defs>
<linearGradient id="paint0_linear_32_1551" x1="3.19969" y1="6.75676" x2="13.2223" y2="26.2853" gradientUnits="userSpaceOnUse">
<stop stop-color="#5A62C3"/>
<stop offset="0.5" stop-color="#4D55BD"/>
<stop offset="1" stop-color="#3940AB"/>
</linearGradient>
<clipPath id="clip0_32_1551">
<rect width="36" height="32" fill="white"/>
</clipPath>
</defs>
</svg>
