<svg width="36" height="32" viewBox="0 0 36 32" fill="none" xmlns="http://www.w3.org/2000/svg">
<path d="M23.9986 3.81817V27.8181C23.9986 30.5056 25.8507 32 27.8165 32C29.6345 32 31.6344 30.7272 31.6344 27.8181V3.99999C31.6344 1.53977 29.8163 0 27.8165 0C25.8166 0 23.9986 1.69886 23.9986 3.81817Z" fill="#F8AB00"/>
<path d="M13.9993 15.9998V27.818C13.9993 30.5055 15.8514 31.9998 17.8172 31.9998C19.6352 31.9998 21.6351 30.727 21.6351 27.818V16.1816C21.6351 13.7214 19.817 12.1816 17.8172 12.1816C15.8173 12.1816 13.9993 13.8805 13.9993 15.9998Z" fill="#E37300"/>
<path d="M11.6358 28.1818C11.6358 30.2898 9.92569 32 7.81789 32C5.7101 32 4 30.2898 4 28.1818C4 26.0739 5.7101 24.3636 7.81789 24.3636C9.92569 24.3636 11.6358 26.0739 11.6358 28.1818Z" fill="#E37300"/>
</svg>
