<svg width="36" height="32" viewBox="0 0 36 32" fill="none" xmlns="http://www.w3.org/2000/svg">
<path d="M25.8283 8.82381C25.8283 12.5909 22.3238 15.6477 18.0013 15.6477C13.6762 15.6477 10.1716 12.5932 10.1716 8.82381C10.1716 5.05438 13.6762 2 18.0013 2C22.3238 2 25.8283 5.05438 25.8283 8.82381ZM7.82974 17.3523C3.50735 17.3523 0 20.4067 0 24.1738C0 27.941 3.50463 30.9976 7.82974 30.9976C12.1548 30.9976 15.6595 27.9432 15.6595 24.1738C15.6595 20.4067 12.1548 17.3523 7.82974 17.3523ZM28.1702 17.3523C23.8451 17.3523 20.3405 20.4067 20.3405 24.1762C20.3405 27.9456 23.8451 31 28.1702 31C32.4926 31 36 27.9456 36 24.1762C36 20.4067 32.4953 17.3523 28.1702 17.3523Z" fill="#F06A6A"/>
</svg>
