<svg width="36" height="32" viewBox="0 0 36 32" fill="none" xmlns="http://www.w3.org/2000/svg">
<path d="M25.6779 15.1212C25.9115 15.0933 26.1352 15.092 26.3408 15.1212C26.4598 14.8482 26.4802 14.3777 26.3732 13.8654C26.2142 13.1038 25.9988 12.6429 25.5537 12.7147C25.1088 12.7864 25.0923 13.3381 25.2514 14.0997C25.3409 14.5281 25.5003 14.8943 25.6779 15.1212Z" fill="#000008"/>
<path d="M21.8611 15.7248L21.9111 15.7467C22.2 15.8739 22.3792 15.9527 22.4518 15.8761C22.501 15.8255 22.4863 15.7293 22.4103 15.6051C22.2532 15.3486 21.9299 15.0884 21.587 14.9423C20.8855 14.6405 20.0492 14.7408 19.4039 15.2045C19.1909 15.3606 18.9889 15.5768 19.0179 15.7081C19.0272 15.7506 19.0592 15.7825 19.1338 15.793C19.2029 15.8008 19.3396 15.7577 19.5232 15.6998C19.8064 15.6103 20.2011 15.4858 20.6301 15.4595C21.1293 15.4289 21.5428 15.585 21.8611 15.7248Z" fill="#000008"/>
<path d="M20.4286 16.4185C20.5754 16.2913 20.8043 16.1546 21.2189 16.0891C21.7899 16.0213 22.2087 16.2877 22.3058 16.4453C22.3477 16.5129 22.3311 16.5574 22.3177 16.5778C22.273 16.6476 22.1782 16.6369 21.98 16.6146L21.965 16.6129C21.5877 16.57 21.207 16.545 20.6299 16.7515C20.6299 16.7515 20.42 16.8357 20.3264 16.8357C20.2996 16.8357 20.2772 16.8265 20.2582 16.8097C20.2443 16.7981 20.2268 16.7747 20.2265 16.7343C20.2259 16.6491 20.3032 16.5281 20.4286 16.4185Z" fill="#000008"/>
<path d="M24.3909 17.4311C24.6725 17.5694 24.9825 17.5151 25.0834 17.3097C25.1843 17.1044 25.0379 16.8258 24.7562 16.6875C24.4746 16.5491 24.1646 16.6033 24.0637 16.8087C23.9628 17.014 24.1093 17.2927 24.3909 17.4311Z" fill="#000008"/>
<path d="M25.778 16.4101C25.7832 16.0964 25.9731 15.8453 26.2017 15.8491C26.4306 15.853 26.6117 16.1104 26.6064 16.4242C26.601 16.7378 26.4114 16.9889 26.1825 16.9851C25.9538 16.9812 25.7727 16.7238 25.778 16.4101Z" fill="#000008"/>
<path d="M10.5963 21.4771L10.5951 21.4774C10.5322 21.492 10.461 21.5086 10.383 21.5071C10.2147 21.504 10.0722 21.4321 9.99226 21.3092C9.88806 21.1491 9.89406 20.9106 10.009 20.6373C10.0238 20.6025 10.0409 20.5639 10.0596 20.5221L10.0627 20.5151C10.2462 20.1034 10.5533 19.4146 10.2085 18.758C9.94903 18.264 9.52587 17.9563 9.01713 17.8916C8.52858 17.8298 8.02571 18.0109 7.70504 18.3649C7.19898 18.9231 7.11989 19.6827 7.21772 19.9511C7.25359 20.0495 7.30967 20.0766 7.35045 20.0823C7.43652 20.0939 7.56386 20.0312 7.64357 19.8167C7.64933 19.8013 7.65692 19.7773 7.66647 19.7469C7.70198 19.6334 7.7681 19.4223 7.87658 19.253C8.00723 19.0487 8.21072 18.9081 8.44973 18.857C8.69315 18.8049 8.94183 18.8512 9.1501 18.9876C9.50457 19.2196 9.64109 19.6541 9.48975 20.0686C9.41151 20.2828 9.28442 20.6926 9.31246 21.0294C9.36915 21.7111 9.78839 21.9848 10.165 22.0138C10.5312 22.0277 10.7873 21.8222 10.8519 21.6718C10.8902 21.5829 10.8579 21.5288 10.8372 21.5057C10.7803 21.4343 10.6867 21.4561 10.5963 21.4771Z" fill="#000008"/>
<path fill-rule="evenodd" clip-rule="evenodd" d="M31.9637 20.2305C31.9674 20.2436 31.9701 20.2533 31.9717 20.259C32.4304 20.259 33.1506 20.787 33.1506 22.061C33.1506 23.3287 32.6246 24.7647 32.5007 25.0834C30.6056 29.6248 26.0831 32.1529 20.6955 31.9928C15.6729 31.8436 11.3893 29.1932 9.51459 24.8728C8.3809 24.8737 7.21268 24.3755 6.32412 23.5883C5.38817 22.7591 4.81061 21.6859 4.69821 20.5662C4.61054 19.6947 4.7178 18.8841 4.99097 18.1766L3.93797 17.2847C-0.879519 13.2168 14.1888 -3.53233 19.0083 0.671415C19.0325 0.692598 20.6478 2.27739 20.6517 2.28131C20.6567 2.27882 21.1993 2.04865 21.4374 1.94763C21.5037 1.91953 21.5464 1.90142 21.5473 1.901C25.7744 0.15066 29.2045 0.995768 29.2087 3.78884C29.2109 5.24115 28.2855 6.93418 26.8029 8.47097C27.3401 8.96957 27.7705 9.74892 28.0176 10.6395C28.2249 11.2976 28.2616 11.9655 28.2803 12.3935C28.2981 12.801 28.3171 13.5815 28.3282 14.0363C28.3332 14.2421 28.3366 14.3813 28.3375 14.3889C28.3584 14.3953 28.5006 14.4345 28.6448 14.4744C28.7594 14.5061 28.8753 14.5381 28.9328 14.5542C30.0674 14.8727 30.8747 15.2971 31.2694 15.7116C31.6643 16.1259 31.86 16.5268 31.9311 16.9974C31.9975 17.3767 31.9887 18.0468 31.4882 18.7962C31.4882 18.7962 31.6174 19.0778 31.7421 19.4777C31.8523 19.8309 31.936 20.1312 31.9637 20.2305ZM20.2664 22.3607L20.2659 22.3599L20.267 22.3621L20.2664 22.3607ZM30.1777 26.1165C31.1903 25.0582 31.7928 23.9079 32.0267 22.4903C32.1417 21.7317 31.9734 21.4382 31.744 21.2971C31.5013 21.1476 31.2108 21.1996 31.2108 21.1996C31.2108 21.1996 31.0782 20.2925 30.703 19.4682C29.5905 20.3462 28.158 20.9632 27.0674 21.2763C25.8089 21.6375 24.1059 21.9151 22.2058 21.8018C21.9988 21.7851 21.8056 21.7599 21.6267 21.7364C20.8945 21.6407 20.4027 21.5763 20.1919 22.2615C22.6 23.1431 25.1491 22.7657 25.1491 22.7657C25.1983 22.7607 25.2424 22.7966 25.2474 22.8459C25.2515 22.8859 25.2271 22.9265 25.1917 22.9414C25.1917 22.9414 23.2337 23.8504 20.1241 22.8888C20.2105 23.6182 20.9213 23.9451 21.261 24.0772C21.6884 24.2436 22.1566 24.3205 22.1566 24.3205C26.0099 24.9833 29.6122 22.78 30.4233 22.2251C30.4842 22.1836 30.5244 22.224 30.4756 22.2977C30.4288 22.3684 30.4259 22.3725 30.3961 22.4109C29.4036 23.6914 26.7349 25.1742 23.2629 25.1736C21.7485 25.1733 20.235 24.6398 19.6794 23.8201C18.8173 22.5482 19.6368 20.6916 21.0733 20.8851C21.075 20.8853 21.5647 20.9408 21.7025 20.9562C23.4983 21.1562 26.0977 20.9044 28.2402 19.9099C30.2002 19.0002 30.9407 17.9988 30.8296 17.1883C30.7993 16.9699 30.7017 16.741 30.4917 16.5256C30.1396 16.1808 29.5809 15.9124 28.6386 15.6478C28.5773 15.6306 28.5199 15.6146 28.4655 15.5995C28.2436 15.5377 28.0713 15.4898 27.8886 15.4297C27.484 15.2965 27.284 15.1892 27.2387 14.4284C27.2189 14.0957 27.161 12.9365 27.14 12.4575C27.1032 11.6183 27.0021 10.4711 26.2903 9.99736C26.1048 9.87394 25.8985 9.81443 25.6817 9.8028C25.5072 9.79465 25.4043 9.81891 25.3495 9.83183C25.3376 9.83463 25.328 9.8369 25.3204 9.83818C24.9362 9.90324 24.7007 10.1002 24.423 10.3324C24.407 10.3458 24.3908 10.3594 24.3744 10.373C23.4866 11.1128 22.7368 11.234 21.9032 11.198C21.6437 11.1871 21.376 11.1609 21.0936 11.1332C20.834 11.1077 20.5619 11.081 20.2721 11.0638C20.2479 11.0624 20.2237 11.061 20.1995 11.0595C20.1058 11.0539 20.0119 11.0483 19.9183 11.0435C18.5219 10.972 17.0243 12.178 16.7755 13.8903C16.4978 15.8012 17.5519 16.9717 18.2378 17.7333C18.4075 17.9218 18.5547 18.0853 18.6536 18.2287C18.7172 18.3151 18.7907 18.4371 18.7907 18.5526C18.7907 18.6909 18.7012 18.8007 18.6133 18.894L18.6134 18.8948C17.189 20.3596 16.7333 22.6866 17.2701 24.6262C17.3371 24.8686 17.422 25.1002 17.5224 25.3215C18.7822 28.2649 22.6895 29.6355 26.5066 28.3888C27.0181 28.2218 27.5022 28.0152 27.9568 27.7764C28.8131 27.3569 29.5614 26.78 30.1777 26.1165ZM18.2991 5.73239C16.982 6.4062 15.5114 7.60628 14.317 8.98659C14.2748 9.03532 14.3375 9.10425 14.3895 9.0663C15.4213 8.31596 16.8355 7.61815 18.6883 7.16621C20.7637 6.66003 22.7617 6.87222 23.9824 7.15201C24.0433 7.16597 24.0823 7.0603 24.0277 7.02956C23.221 6.57726 21.9832 6.26992 21.1052 6.26368C21.062 6.26343 21.0376 6.21335 21.0635 6.17858C21.2154 5.97446 21.4233 5.77255 21.6135 5.62672C21.6562 5.59403 21.6302 5.52509 21.5765 5.5284C20.3261 5.6053 18.9006 6.2038 18.0811 6.76251C18.0407 6.79006 17.9886 6.75394 17.9985 6.70607C18.0623 6.39824 18.2637 5.99283 18.3683 5.80341C18.393 5.7586 18.3446 5.70913 18.2991 5.73239ZM5.49408 17.2209C6.07691 16.3742 7.03 15.7613 8.11153 15.5511C9.48839 11.8559 11.7869 8.45077 14.8297 6.10793C17.0878 4.22462 19.5229 2.87357 19.5229 2.87357C19.5229 2.87357 18.2112 1.35269 17.8153 1.24066C15.3792 0.582276 10.1169 4.21139 6.75707 9.00618C5.39748 10.9463 3.45138 14.3817 4.38194 16.1487C4.49655 16.3679 5.14561 16.9304 5.49408 17.2209ZM9.42974 23.6944C9.5981 23.6984 9.76511 23.6873 9.92882 23.6594C11.6895 23.3592 12.1505 21.447 11.8603 19.5691C11.5326 17.4487 10.0983 16.7012 9.12486 16.6479C8.85426 16.6338 8.60326 16.6579 8.3956 16.6998C6.65826 17.0501 5.67714 18.5282 5.87023 20.4484C6.04483 22.1858 7.80249 23.6507 9.42974 23.6944Z" fill="#000008"/>
</svg>
