<svg width="36" height="32" viewBox="0 0 36 32" fill="none" xmlns="http://www.w3.org/2000/svg">
<path d="M26.7779 10.5363V6.72564C27.3525 6.49029 27.8389 6.11676 28.1807 5.64852C28.5225 5.18028 28.7055 4.6366 28.7084 4.08076V3.99325C28.7084 2.37261 27.2094 1.05881 25.3602 1.05881H25.2604C24.3724 1.05881 23.5208 1.36798 22.8929 1.91829C22.265 2.4686 21.9122 3.21499 21.9122 3.99325V4.08076C21.9151 4.6366 22.0981 5.18028 22.4399 5.64852C22.7817 6.11676 23.2682 6.49029 23.8427 6.72564V10.5363C22.1914 10.7579 20.6362 11.358 19.3345 12.2758L7.41009 4.13586C7.49515 3.86684 7.53953 3.59025 7.54446 3.31258C7.54592 2.6586 7.32605 2.01894 6.91266 1.4745C6.49927 0.930054 5.91094 0.505293 5.22207 0.253942C4.5332 0.00259074 3.77475 -0.0640583 3.04266 0.0624253C2.31056 0.188909 1.63772 0.502843 1.10922 0.964517C0.580733 1.42619 0.220339 2.01487 0.0736297 2.65608C-0.0730796 3.29729 0.000493533 3.96223 0.28503 4.56679C0.569566 5.17135 1.05228 5.68838 1.67213 6.05246C2.29198 6.41655 3.02112 6.61134 3.7673 6.61219C4.4201 6.6095 5.06068 6.45676 5.62506 6.16922L17.367 14.1773C16.3122 15.574 15.7619 17.2167 15.7879 18.8914C15.8138 20.5662 16.4148 22.1952 17.5125 23.5662L13.9412 26.6973C13.6525 26.6164 13.3518 26.5734 13.0487 26.5698C12.4362 26.5702 11.8376 26.7298 11.3285 27.0283C10.8195 27.3268 10.4228 27.7508 10.1886 28.2469C9.95444 28.7429 9.89329 29.2886 10.0129 29.8151C10.1325 30.3416 10.4275 30.8252 10.8606 31.2048C11.2937 31.5843 11.8455 31.8429 12.4462 31.9477C13.0469 32.0526 13.6696 31.999 14.2356 31.7937C14.8015 31.5885 15.2854 31.2408 15.626 30.7947C15.9666 30.3485 16.1486 29.8239 16.1491 29.2871C16.1451 29.0214 16.0961 28.7578 16.0036 28.5048L19.5367 25.4073C20.6888 26.1846 22.0287 26.7206 23.4536 26.974C24.8785 27.2274 26.3508 27.1916 27.7575 26.8694C29.1642 26.5471 30.4681 25.9469 31.5693 25.1148C32.6705 24.2826 33.5397 23.2406 34.1104 22.0686C34.6812 20.8965 34.9382 19.6255 34.8619 18.353C34.7855 17.0804 34.3779 15.84 33.6701 14.7269C32.9623 13.6137 31.9732 12.6573 30.7786 11.931C29.5839 11.2046 28.2154 10.7275 26.7779 10.5363ZM25.3134 23.0692C24.6604 23.085 24.0105 22.9858 23.402 22.7777C22.7935 22.5696 22.2388 22.2567 21.7706 21.8575C21.3024 21.4583 20.9302 20.9809 20.6761 20.4535C20.422 19.9261 20.2911 19.3594 20.2911 18.787C20.2911 18.2145 20.422 17.6478 20.6761 17.1204C20.9302 16.593 21.3024 16.1156 21.7706 15.7164C22.2388 15.3172 22.7935 15.0043 23.402 14.7962C24.0105 14.5881 24.6604 14.4889 25.3134 14.5047C26.5789 14.5435 27.7778 15.0113 28.6577 15.8095C29.5375 16.6077 30.0296 17.674 30.0302 18.7838C30.0308 19.8936 29.54 20.9603 28.6611 21.7593C27.7822 22.5583 26.5838 23.0271 25.3183 23.0671" fill="#FF5C35"/>
</svg>
