<svg width="36" height="32" viewBox="0 0 36 32" fill="none" xmlns="http://www.w3.org/2000/svg">
<path d="M10.1437 13.9004C10.1437 14.2914 10.1916 14.6085 10.2754 14.8409C10.3712 15.0734 10.4909 15.327 10.6585 15.6018C10.7184 15.6863 10.7424 15.7709 10.7424 15.8448C10.7424 15.9505 10.6705 16.0562 10.5149 16.1618L9.76055 16.6057C9.65279 16.6691 9.54504 16.7008 9.44925 16.7008C9.32952 16.7008 9.20979 16.6479 9.09006 16.5528C8.92243 16.3943 8.77875 16.2252 8.65902 16.0562C8.53929 15.8765 8.41956 15.6758 8.28785 15.4327C7.35395 16.4049 6.18058 16.891 4.76775 16.891C3.762 16.891 2.9598 16.6374 2.37312 16.1301C1.78643 15.6229 1.4871 14.9466 1.4871 14.1012C1.4871 13.203 1.8463 12.4739 2.57666 11.9244C3.30702 11.3749 4.27685 11.1001 5.51008 11.1001C5.91717 11.1001 6.33623 11.1318 6.77924 11.1846C7.22224 11.2375 7.67722 11.322 8.15615 11.4171V10.6457C8.15615 9.8426 7.96458 9.28254 7.59341 8.95495C7.21027 8.62736 6.56372 8.46885 5.64179 8.46885C5.22273 8.46885 4.79169 8.51112 4.34869 8.60623C3.90568 8.70133 3.47465 8.81757 3.05559 8.96552C2.86402 9.03949 2.72034 9.08176 2.63653 9.10289C2.55271 9.12403 2.49285 9.13459 2.44495 9.13459C2.27733 9.13459 2.19352 9.02892 2.19352 8.80701V8.28921C2.19352 8.12013 2.21746 7.99333 2.27733 7.91935C2.3372 7.84538 2.44495 7.77141 2.61258 7.69744C3.03164 7.50723 3.53451 7.34872 4.1212 7.22191C4.70788 7.08454 5.33048 7.02113 5.98901 7.02113C7.41381 7.02113 8.45548 7.30645 9.12597 7.87709C9.7845 8.44772 10.1197 9.31424 10.1197 10.4766V13.9004H10.1437ZM5.28259 15.5067C5.67771 15.5067 6.08479 15.4433 6.51583 15.3165C6.94686 15.1897 7.33 14.9572 7.65328 14.6402C7.84485 14.4394 7.98853 14.2175 8.06036 13.9638C8.1322 13.7102 8.1801 13.4038 8.1801 13.0445V12.6007C7.83287 12.5267 7.46171 12.4633 7.07857 12.421C6.69542 12.3788 6.32426 12.3576 5.95309 12.3576C5.15089 12.3576 4.5642 12.495 4.16909 12.7803C3.77397 13.0656 3.5824 13.4672 3.5824 13.9956C3.5824 14.4922 3.72608 14.8621 4.02541 15.1157C4.31277 15.3799 4.73183 15.5067 5.28259 15.5067ZM14.897 16.6479C14.6815 16.6479 14.5378 16.6162 14.4421 16.5423C14.3463 16.4789 14.2625 16.3309 14.1906 16.1301L11.3769 7.96162C11.3051 7.75028 11.2692 7.6129 11.2692 7.53893C11.2692 7.36986 11.365 7.27475 11.5565 7.27475H12.7299C12.9574 7.27475 13.113 7.30645 13.1968 7.38042C13.2926 7.44383 13.3645 7.59177 13.4363 7.79255L15.4478 14.7881L17.3156 7.79255C17.3755 7.5812 17.4473 7.44383 17.5431 7.38042C17.6389 7.31702 17.8065 7.27475 18.022 7.27475H18.9799C19.2074 7.27475 19.363 7.30645 19.4588 7.38042C19.5546 7.44383 19.6384 7.59177 19.6863 7.79255L21.5781 14.8726L23.6494 7.79255C23.7212 7.5812 23.8051 7.44383 23.8889 7.38042C23.9847 7.31702 24.1403 7.27475 24.3558 7.27475H25.4693C25.6609 7.27475 25.7687 7.35929 25.7687 7.53893C25.7687 7.59177 25.7567 7.64461 25.7447 7.70801C25.7327 7.77141 25.7088 7.85595 25.6609 7.97219L22.7754 16.1407C22.7035 16.3521 22.6197 16.4894 22.5239 16.5528C22.4282 16.6162 22.2725 16.6585 22.069 16.6585H21.0393C20.8118 16.6585 20.6561 16.6268 20.5603 16.5528C20.4646 16.4789 20.3807 16.3415 20.3328 16.1301L18.477 9.31424L16.6331 16.1196C16.5733 16.3309 16.5014 16.4683 16.4057 16.5423C16.3099 16.6162 16.1422 16.6479 15.9267 16.6479H14.897ZM30.2825 16.9333C29.6599 16.9333 29.0373 16.8699 28.4387 16.743C27.84 16.6162 27.3731 16.4789 27.0618 16.3204C26.8702 16.2252 26.7385 16.1196 26.6906 16.0245C26.6427 15.9294 26.6188 15.8237 26.6188 15.7286V15.1897C26.6188 14.9677 26.7145 14.8621 26.8941 14.8621C26.966 14.8621 27.0378 14.8726 27.1097 14.8938C27.1815 14.9149 27.2892 14.9572 27.409 14.9994C27.8161 15.158 28.2591 15.2848 28.726 15.3693C29.205 15.4538 29.6719 15.4961 30.1508 15.4961C30.9051 15.4961 31.4918 15.3799 31.8989 15.1474C32.306 14.9149 32.5215 14.5768 32.5215 14.1435C32.5215 13.8476 32.4138 13.6046 32.1982 13.4038C31.9827 13.203 31.5756 13.0234 30.989 12.8543L29.2528 12.3788C28.3788 12.1357 27.7323 11.7764 27.3371 11.3009C26.942 10.8359 26.7385 10.3181 26.7385 9.76863C26.7385 9.3248 26.8462 8.93382 27.0618 8.59566C27.2773 8.25751 27.5646 7.96162 27.9238 7.72914C28.283 7.4861 28.6901 7.30645 29.169 7.17964C29.648 7.05284 30.1508 7 30.6777 7C30.9411 7 31.2164 7.01057 31.4799 7.04227C31.7552 7.07397 32.0067 7.11624 32.2581 7.15851C32.4976 7.21135 32.7251 7.26418 32.9406 7.32759C33.1561 7.39099 33.3237 7.45439 33.4434 7.5178C33.6111 7.60234 33.7308 7.68687 33.8026 7.78198C33.8745 7.86652 33.9104 7.98276 33.9104 8.1307V8.62736C33.9104 8.84928 33.8146 8.96552 33.635 8.96552C33.5392 8.96552 33.3836 8.92325 33.18 8.83871C32.4976 8.56396 31.7313 8.42658 30.8812 8.42658C30.1987 8.42658 29.6599 8.52169 29.2888 8.72247C28.9176 8.92325 28.726 9.2297 28.726 9.66296C28.726 9.95884 28.8458 10.2125 29.0852 10.4132C29.3247 10.614 29.7677 10.8148 30.4023 10.9944L32.1025 11.47C32.9645 11.713 33.5871 12.0512 33.9583 12.4844C34.3295 12.9177 34.5091 13.4143 34.5091 13.9638C34.5091 14.4182 34.4013 14.8304 34.1978 15.1897C33.9822 15.5489 33.6949 15.866 33.3237 16.1196C32.9526 16.3838 32.5095 16.574 31.9947 16.7113C31.4559 16.8593 30.8932 16.9333 30.2825 16.9333Z" fill="#221F1F"/>
<path fill-rule="evenodd" clip-rule="evenodd" d="M32.5469 22.069C28.6077 24.6368 22.8845 26 17.9636 26C11.067 26 4.85296 23.7492 0.159484 20.0083C-0.211683 19.7125 0.123565 19.3109 0.566572 19.5434C5.64319 22.1429 11.9051 23.7175 18.3826 23.7175C22.7528 23.7175 27.5541 22.9144 31.9722 21.2659C32.6307 21.0017 33.1934 21.6463 32.5469 22.069Z" fill="#FF9900"/>
<path fill-rule="evenodd" clip-rule="evenodd" d="M34.1874 20.4204C33.6845 19.8498 30.8589 20.1457 29.5777 20.283C29.1946 20.3253 29.1347 20.0294 29.4819 19.8075C31.7329 18.4126 35.4326 18.8142 35.8636 19.2792C36.2947 19.7547 35.7439 23.02 33.6366 24.5839C33.3134 24.827 33.002 24.7002 33.1457 24.3832C33.6247 23.337 34.6903 20.9805 34.1874 20.4204Z" fill="#FF9900"/>
</svg>
