<svg width="36" height="32" viewBox="0 0 36 32" fill="none" xmlns="http://www.w3.org/2000/svg">
<g clip-path="url(#clip0_32_1172)">
<path d="M13.1154 0.722962C7.49645 1.09254 2.71966 1.43242 2.49507 1.47223C1.86537 1.57204 1.29253 1.95173 1.02316 2.45145L0.787201 2.89115L0.809944 13.3707L0.843348 23.8503L1.20298 24.4997C1.40553 24.8592 2.77652 26.5378 4.27118 28.2656C7.22709 31.6721 7.4403 31.8622 8.56396 31.962C8.89018 31.9917 11.3401 31.8919 13.9925 31.7523C16.6563 31.6026 20.9263 31.3726 23.4892 31.2431C34.4351 30.6524 33.8729 30.7023 34.5019 30.2228C35.2887 29.6435 35.2325 30.5924 35.2659 17.8556C35.2887 7.05632 35.2773 6.34749 35.0975 6.01771C34.8843 5.64813 34.5019 5.38848 29.5119 2.2714C26.1743 0.19355 25.9384 0.0836249 24.443 0.0634087C23.8254 0.0438242 18.7231 0.343277 13.1154 0.722962ZM25.7472 2.09135C26.2191 2.28087 29.6697 4.41874 30.175 4.82875C30.31 4.94878 30.3548 5.0486 30.2873 5.10861C30.1302 5.22865 8.77647 6.3576 8.15885 6.27736C7.87811 6.23756 7.46234 6.08784 7.22638 5.94759C6.24842 5.35816 3.82129 3.58987 3.82129 3.46036C3.82129 3.12048 3.7424 3.12048 13.2619 2.51146C15.0827 2.40154 18.072 2.2019 19.8929 2.07176C23.8367 1.79189 25.0173 1.802 25.7472 2.09135ZM32.5353 7.55604C32.6924 7.69566 32.8274 7.96542 32.8722 8.22507C32.9056 8.46513 32.9283 12.9405 32.9056 18.155C32.8722 27.1057 32.8608 27.6655 32.6696 27.9251C32.5573 28.085 32.3328 28.2549 32.1636 28.3048C31.6924 28.4748 9.31662 29.6037 8.85607 29.4837C8.64285 29.4338 8.35003 29.2739 8.19296 29.1343L7.92289 28.8747L7.88948 19.2246C7.86674 12.4515 7.88948 9.45446 7.97974 9.18471C8.04726 8.98507 8.21571 8.745 8.36211 8.6654C8.56467 8.54537 9.89089 8.44555 14.4537 8.20611C17.657 8.04628 22.6129 7.77652 25.4565 7.6268C32.2205 7.25659 32.1984 7.25659 32.5353 7.55604Z" fill="black"/>
<path d="M26.5226 10.8626C25.3087 10.9328 24.2298 11.0326 24.1061 11.0926C23.7351 11.2625 23.5105 11.5424 23.4657 11.8621C23.4323 12.1919 23.5446 12.2317 24.7578 12.3618L25.2859 12.4218V16.6874C25.2859 19.2246 25.2411 20.9031 25.185 20.8532C25.1288 20.7932 23.5333 18.6358 21.6335 16.0582C19.7344 13.4712 18.1609 11.3428 18.1381 11.3232C18.1154 11.303 16.8795 11.363 15.3962 11.4533C13.5753 11.5633 12.5753 11.6631 12.3727 11.7629C12.0465 11.9126 11.6869 12.442 11.6869 12.792C11.6869 13.0018 12.114 13.1117 13.0131 13.1117H13.485V25.3791L12.721 25.5889C12.1254 25.7487 11.9229 25.8485 11.8219 26.0482C11.6421 26.3881 11.6535 26.6976 11.8333 26.6976C11.9008 26.6976 13.1709 26.6275 14.6314 26.5479C17.5198 26.3982 17.8453 26.328 18.1488 25.7986C18.2391 25.6388 18.3172 25.4688 18.3172 25.4189C18.3172 25.3791 17.9242 25.2591 17.4516 25.1593C16.9683 25.0595 16.485 24.9597 16.3841 24.9394C16.1929 24.8895 16.1815 24.58 16.1815 20.284V15.6785L19.598 20.4439C23.1829 25.4385 23.6328 26.0084 24.1836 26.2579C24.8694 26.5776 26.6114 26.3577 27.4877 25.8485L27.7578 25.6988L27.7806 18.8859L27.814 12.063L28.4096 11.9632C29.1174 11.8431 29.4437 11.5538 29.4437 11.0541C29.4437 10.7344 29.4209 10.7142 29.084 10.7243C28.8829 10.7325 27.7251 10.7925 26.5226 10.8626Z" fill="black"/>
</g>
<defs>
<clipPath id="clip0_32_1172">
<rect width="36" height="32" fill="white"/>
</clipPath>
</defs>
</svg>
