<svg width="36" height="32" viewBox="0 0 36 32" fill="none" xmlns="http://www.w3.org/2000/svg">
<g clip-path="url(#clip0_32_184)">
<path d="M0 0H16.875C16.874 5 16.875 10 16.874 15H0V0Z" fill="#F25022"/>
<path d="M19.125 0H35.9995C35.9995 5 36.0006 10 35.9995 15C30.3757 15 24.7509 15 19.127 15C19.125 10 19.126 5 19.126 0H19.125Z" fill="#80BA01"/>
<path d="M0 17C5.625 17.0018 11.25 16.9991 16.875 17.0018C16.875 22.0015 16.875 27.0003 16.875 32H0V17Z" fill="#02A4EF"/>
<path d="M19.126 17.0008C24.75 16.999 30.375 17.0008 36 17.0008V32H19.125C19.126 27.0003 19.125 22.0005 19.126 17.0017V17.0008Z" fill="#FFB902"/>
</g>
<defs>
<clipPath id="clip0_32_184">
<rect width="36" height="32" fill="white"/>
</clipPath>
</defs>
</svg>
