<svg width="300" height="391" viewBox="0 0 300 391" fill="none" xmlns="http://www.w3.org/2000/svg">
<rect width="300" height="391" rx="20" fill="#003A51"/>
<path d="M2 87C13.1624 87 24.2154 84.7626 34.5281 80.4156C44.8408 76.0685 54.2111 69.697 62.1041 61.6647C69.9971 53.6325 76.2581 44.0968 80.5298 33.6021C84.8014 23.1075 87 11.8593 87 0.5H48.9493C48.9493 6.77427 47.7349 12.9871 45.3755 18.7838C43.0161 24.5804 39.5578 29.8474 35.1982 34.284C30.8385 38.7206 25.6629 42.2399 19.9667 44.6409C14.2706 47.042 8.16547 48.2778 2 48.2778V87Z" fill="url(#paint0_linear_123_105)"/>
<path d="M298.5 87C286.09 87 273.802 84.7626 262.336 80.4156C250.871 76.0685 240.454 69.697 231.678 61.6647C222.903 53.6325 215.942 44.0968 211.193 33.6021C206.444 23.1075 204 11.8593 204 0.5H246.303C246.303 6.77427 247.654 12.9871 250.277 18.7838C252.9 24.5804 256.745 29.8474 261.591 34.284C266.438 38.7206 272.192 42.2399 278.525 44.6409C284.858 47.042 291.645 48.2778 298.5 48.2778L298.5 87Z" fill="url(#paint1_linear_123_105)"/>
<defs>
<linearGradient id="paint0_linear_123_105" x1="2" y1="-86" x2="2" y2="87" gradientUnits="userSpaceOnUse">
<stop stop-color="#C1EEFF"/>
<stop offset="1" stop-color="#003A51"/>
</linearGradient>
<linearGradient id="paint1_linear_123_105" x1="298.5" y1="-86" x2="298.5" y2="87" gradientUnits="userSpaceOnUse">
<stop stop-color="#C1EEFF"/>
<stop offset="1" stop-color="#003A51"/>
</linearGradient>
</defs>
</svg>
