<svg width="36" height="32" viewBox="0 0 36 32" fill="none" xmlns="http://www.w3.org/2000/svg">
<path d="M34.9803 15.116L19.4668 1.32597L17.9751 0L6.33995 10.3425L1.01959 15.0719C0.472637 15.558 0.472637 16.3536 1.01959 16.884L11.6603 26.3425L17.9751 32L29.6103 21.6575L29.8092 21.4807L34.9803 16.884C35.5274 16.3977 35.5274 15.6023 34.9803 15.116ZM17.9751 20.7293L12.6548 16L17.9751 11.2707L23.2955 16L17.9751 20.7293Z" fill="#2684FF"/>
<path d="M17.9751 11.2706C14.4946 8.17674 14.4946 3.138 17.9255 0.0440674L6.29022 10.3866L12.6051 15.9999L17.9751 11.2706Z" fill="url(#paint0_linear_32_1554)"/>
<path d="M23.296 15.9999L17.9756 20.7292C21.4561 23.8231 21.4561 28.8617 17.9756 31.9999L29.6604 21.6131L23.296 15.9999Z" fill="url(#paint1_linear_32_1554)"/>
<defs>
<linearGradient id="paint0_linear_32_1554" x1="17.0261" y1="6.47916" x2="10.4668" y2="13.8582" gradientUnits="userSpaceOnUse">
<stop offset="0.176" stop-color="#0052CC"/>
<stop offset="1" stop-color="#2684FF"/>
</linearGradient>
<linearGradient id="paint1_linear_32_1554" x1="18.9932" y1="25.4521" x2="25.5393" y2="18.088" gradientUnits="userSpaceOnUse">
<stop offset="0.176" stop-color="#0052CC"/>
<stop offset="1" stop-color="#2684FF"/>
</linearGradient>
</defs>
</svg>
