<svg width="36" height="32" viewBox="0 0 36 32" fill="none" xmlns="http://www.w3.org/2000/svg">
<path fill-rule="evenodd" clip-rule="evenodd" d="M3.35207 7H32.6479C33.0883 7 33.5243 7.07696 33.931 7.2265C34.3378 7.37603 34.7074 7.5952 35.0187 7.87149C35.33 8.14778 35.5769 8.47577 35.7452 8.83673C35.9136 9.19769 36.0002 9.58454 36 9.97519V19.8912C36 20.2817 35.9133 20.6684 35.7448 21.0291C35.5763 21.3899 35.3294 21.7176 35.0181 21.9937C34.7068 22.2697 34.3373 22.4887 33.9306 22.638C33.5239 22.7873 33.0881 22.8641 32.6479 22.8639H22.1412L23.5792 26L17.2321 22.8639H3.34782C2.45977 22.8629 1.60847 22.5493 0.980795 21.992C0.35312 21.4346 0.000374621 20.6791 0 19.8912V9.97519C-7.93506e-08 9.18634 0.353118 8.42978 0.981712 7.87186C1.61031 7.31394 2.46291 7.00033 3.35207 7Z" fill="#7D57A4"/>
<path d="M1.81198 9.69362C1.92286 9.57068 2.06279 9.47083 2.22191 9.40112C2.38103 9.3314 2.55546 9.29352 2.73288 9.29014C3.47999 9.24405 3.9088 9.55661 4.0193 10.2278C4.48022 12.9504 4.97373 15.2615 5.49982 17.1611L8.72438 11.7211C9.01623 11.23 9.38506 10.9703 9.83087 10.9418C10.4769 10.9015 10.8807 11.2665 11.0422 12.0366C11.3457 13.5594 11.812 15.0531 12.4349 16.4975C12.8221 13.1842 13.4687 10.7888 14.3744 9.31151C14.4618 9.14581 14.5985 9.00441 14.7698 8.90252C14.941 8.80064 15.1404 8.74214 15.3463 8.73331C15.6817 8.70886 16.0145 8.80129 16.2743 8.99099C16.4069 9.07981 16.5159 9.1934 16.5935 9.32373C16.6711 9.45405 16.7155 9.59793 16.7234 9.74515C16.7472 9.96246 16.6979 10.1811 16.5818 10.3736C16.0075 11.3188 15.5352 12.8905 15.165 15.0884C14.7995 17.2102 14.6644 18.8697 14.7598 20.0672C14.7933 20.3607 14.7339 20.6567 14.5884 20.9219C14.5177 21.0558 14.4076 21.1703 14.2697 21.2532C14.1318 21.3362 13.9712 21.3846 13.8049 21.3933C13.4167 21.4184 13.0299 21.2563 12.6403 20.9093C11.2727 19.665 10.1865 17.8135 9.38176 15.3549C8.43725 17.0308 7.72887 18.2844 7.25661 19.1157C6.39238 20.5905 5.65189 21.3468 5.03512 21.3845C4.63465 21.4096 4.29368 21.1113 4.01222 20.4895C3.25661 18.7826 2.44622 15.4802 1.58105 10.5823C1.54686 10.4281 1.54975 10.2692 1.58955 10.1161C1.62934 9.96293 1.70514 9.81897 1.81198 9.69362Z" fill="white"/>
<path d="M33.4356 11.745C33.1925 11.3558 32.8558 11.0188 32.4493 10.7581C32.0428 10.4974 31.5766 10.3194 31.0838 10.2367C30.821 10.1874 30.5533 10.1621 30.2847 10.1613C28.8755 10.1613 27.7242 10.8119 26.8307 12.1133C26.0698 13.2199 25.6737 14.4936 25.6873 15.7899C25.6873 16.7954 25.9235 17.6573 26.3957 18.3754C26.6385 18.7651 26.9754 19.1023 27.3822 19.363C27.789 19.6238 28.2557 19.8016 28.749 19.8837C29.0111 19.9341 29.2784 19.9598 29.5466 19.9604C30.97 19.9604 32.1209 19.3097 32.9992 18.0084C33.7601 16.8938 34.1564 15.6134 34.144 14.3104C34.144 13.3049 33.9079 12.4497 33.4356 11.745ZM31.5797 15.3663C31.3785 16.221 31.0054 16.865 30.4604 17.2982C30.0288 17.6426 29.633 17.783 29.2732 17.7193C28.9133 17.6556 28.6248 17.374 28.4075 16.8746C28.2411 16.4958 28.1532 16.0934 28.1482 15.6868C28.1469 15.3651 28.1829 15.0441 28.2559 14.729C28.3962 14.1714 28.6601 13.6441 29.0323 13.1779C29.5216 12.5402 30.0325 12.2725 30.5653 12.3747C30.9251 12.4393 31.2132 12.72 31.4295 13.2169C31.5954 13.5954 31.6827 13.9974 31.6873 14.4034C31.6892 14.7268 31.6531 15.0495 31.5797 15.3663Z" fill="white"/>
<path d="M24.2152 11.745C23.9721 11.3558 23.6354 11.0188 23.2289 10.7581C22.8224 10.4974 22.3562 10.3194 21.8634 10.2367C21.6006 10.1874 21.3329 10.1621 21.0643 10.1613C19.6542 10.1613 18.5033 10.8119 17.6117 12.1133C16.8497 13.2196 16.4531 14.4934 16.4669 15.7899C16.4669 16.7954 16.703 17.6573 17.1753 18.3754C17.4177 18.7653 17.7545 19.1028 18.1614 19.3636C18.5682 19.6244 19.0351 19.802 19.5285 19.8837C19.7906 19.9341 20.058 19.9598 20.3262 19.9604C21.7505 19.9604 22.9019 19.3097 23.7803 18.0084C24.5437 16.8944 24.9435 15.6142 24.9349 14.3104C24.9349 13.3049 24.6988 12.4497 24.2265 11.745H24.2152ZM22.3592 15.3663C22.1581 16.2227 21.784 16.8675 21.2372 17.3007C20.8046 17.6451 20.4088 17.7855 20.0499 17.7218C19.691 17.6581 19.4034 17.3757 19.1871 16.8746C19.0207 16.4958 18.9328 16.0934 18.9278 15.6868C18.9265 15.3651 18.9625 15.0441 19.0355 14.729C19.177 14.1718 19.4408 13.6447 19.8119 13.1779C20.2993 12.5419 20.8102 12.275 21.3448 12.3773C21.7047 12.4418 21.9923 12.7225 22.2076 13.2194C22.374 13.5978 22.4618 13.9998 22.4669 14.406C22.4684 14.7277 22.4323 15.0486 22.3592 15.3638V15.3663Z" fill="white"/>
</svg>
