<svg width="36" height="32" viewBox="0 0 36 32" fill="none" xmlns="http://www.w3.org/2000/svg">
<g clip-path="url(#clip0_32_840)">
<path d="M18 0C8.05886 0 0 7.16342 0 16C0 24.8365 8.05886 32 18 32C27.9411 32 36 24.8365 36 16C36 7.16342 27.9411 0 18 0ZM18 0.96C20.2847 0.96 22.5004 1.35753 24.5857 2.14152C25.588 2.51837 26.5549 2.98488 27.4594 3.528C28.3556 4.06617 29.1983 4.68427 29.9643 5.3651C30.7302 6.04593 31.4255 6.79507 32.031 7.59163C32.6421 8.39563 33.1668 9.25507 33.5908 10.146C34.4728 11.9996 34.92 13.9692 34.92 16C34.92 18.0308 34.4728 20.0003 33.5908 21.8539C33.1668 22.7449 32.6421 23.6043 32.031 24.4083C31.4255 25.2049 30.7302 25.954 29.9643 26.6349C29.1983 27.3157 28.3556 27.9338 27.4594 28.472C26.5549 29.0151 25.588 29.4816 24.5857 29.8584C22.5004 30.6425 20.2847 31.04 18 31.04C15.7154 31.04 13.4996 30.6425 11.4143 29.8584C10.412 29.4816 9.4451 29.0151 8.5406 28.472C7.64446 27.9338 6.80168 27.3157 6.03575 26.6349C5.26981 25.954 4.57445 25.2049 3.969 24.4083C3.35799 23.6043 2.83317 22.7449 2.40921 21.8539C1.52723 20.0003 1.08 18.0308 1.08 16C1.08 13.9692 1.52723 11.9996 2.40921 10.146C2.83317 9.25507 3.35799 8.39563 3.969 7.59163C4.57445 6.79507 5.26981 6.04593 6.03575 5.3651C6.80168 4.68427 7.64446 4.06617 8.5406 3.528C9.4451 2.98488 10.412 2.51837 11.4143 2.14152C13.4996 1.35753 15.7154 0.96 18 0.96Z" fill="#32373C"/>
<path d="M31.1622 9.60322C31.2267 10.0278 31.2631 10.4834 31.2631 10.9741C31.2631 12.3266 30.978 13.8476 30.1221 15.7497L25.5408 27.5239C30.0003 25.2129 32.9993 20.9184 32.9993 15.9996C32.9993 13.6814 32.3328 11.5021 31.1622 9.60322ZM18.2628 17.1658L13.7615 28.7901C15.1058 29.1417 16.527 29.3334 17.9992 29.3334C19.746 29.3334 21.4217 29.0654 22.9807 28.5774C22.9406 28.5204 22.9036 28.4598 22.8731 28.3937L18.2628 17.1658ZM28.1255 15.3271C28.1255 13.6788 27.4594 12.5379 26.8889 11.6501C26.1285 10.5513 25.4154 9.62165 25.4154 8.52288C25.4154 7.29744 26.4609 6.15658 27.9344 6.15658C28.001 6.15658 28.064 6.16368 28.1286 6.16733C25.4599 3.9938 21.9043 2.66674 17.9992 2.66674C12.7586 2.66674 8.14849 5.0569 5.46631 8.67619C5.81849 8.68613 6.15033 8.69237 6.43167 8.69237C8.00026 8.69237 10.4296 8.52288 10.4296 8.52288C11.2377 8.48079 11.3333 9.53674 10.5255 9.62165C10.5255 9.62165 9.7126 9.70627 8.80886 9.74832L14.271 24.1907L17.554 15.4399L15.2171 9.74832C14.409 9.70627 13.6439 9.62165 13.6439 9.62165C12.8353 9.57922 12.93 8.48079 13.7391 8.52288C13.7391 8.52288 16.2157 8.69237 17.6895 8.69237C19.2581 8.69237 21.6878 8.52288 21.6878 8.52288C22.4964 8.48079 22.5915 9.53674 21.7833 9.62165C21.7833 9.62165 20.9697 9.70627 20.0667 9.74832L25.4875 24.0807L27.035 19.7223C27.7224 17.8175 28.1255 16.468 28.1255 15.3271ZM2.99921 15.9996C2.99921 21.2769 6.44927 25.838 11.4535 27.999L4.29807 10.5734C3.46577 12.2315 2.99921 14.0665 2.99921 15.9996Z" fill="#32373C"/>
</g>
<defs>
<clipPath id="clip0_32_840">
<rect width="36" height="32" fill="white"/>
</clipPath>
</defs>
</svg>
