<svg width="36" height="32" viewBox="0 0 36 32" fill="none" xmlns="http://www.w3.org/2000/svg">
<path d="M11.8125 32C15.228 32 18 29.536 18 26.5V21H11.8125C8.39703 21 5.625 23.464 5.625 26.5C5.625 29.536 8.39703 32 11.8125 32Z" fill="#0ACF83"/>
<path d="M5.625 16.0001C5.625 13.24 8.39703 11 11.8125 11H18V21H11.8125C8.39703 21.0001 5.625 18.7601 5.625 16.0001Z" fill="#A259FF"/>
<path d="M5.625 5.50007C5.625 2.46405 8.39703 0 11.8125 0H18V11H11.8125C8.39703 11 5.625 8.53608 5.625 5.50007Z" fill="#F24E1E"/>
<path d="M18 0H23.625C26.73 0 29.25 2.46405 29.25 5.50007C29.25 8.53608 26.73 11 23.625 11H18V0Z" fill="#FF7262"/>
<path d="M29.25 16C29.25 18.76 26.73 21 23.625 21C20.52 21 18 18.76 18 16C18 13.24 20.52 11 23.625 11C26.73 11 29.25 13.24 29.25 16Z" fill="#1ABCFE"/>
</svg>
